solid OpenSCAD_Model
  facet normal -1 0 0
    outer loop
      vertex 0 2 0
      vertex 0 13 20
      vertex 0 13 0
    endloop
  endfacet
  facet normal -1 -0 0
    outer loop
      vertex 0 13 20
      vertex 0 2 0
      vertex 0 2 20
    endloop
  endfacet
  facet normal -0.994522 0.104527 0
    outer loop
      vertex 0 13 0
      vertex 0.043704 13.4158 20
      vertex 0.043704 13.4158 0
    endloop
  endfacet
  facet normal -0.994522 0.104527 0
    outer loop
      vertex 0.043704 13.4158 20
      vertex 0 13 0
      vertex 0 13 20
    endloop
  endfacet
  facet normal -0.207911 0.978148 0
    outer loop
      vertex 1.79094 14.989 0
      vertex 1.38197 14.9021 20
      vertex 1.79094 14.989 20
    endloop
  endfacet
  facet normal -0.207911 0.978148 0
    outer loop
      vertex 1.38197 14.9021 20
      vertex 1.79094 14.989 0
      vertex 1.38197 14.9021 0
    endloop
  endfacet
  facet normal 0 -1 0
    outer loop
      vertex 1.79094 0.0109558 20
      vertex 11 0.0109558 7
      vertex 11 0.0109558 20
    endloop
  endfacet
  facet normal 0 -1 0
    outer loop
      vertex 1.79094 0.0109558 0
      vertex 11 0.0109558 7
      vertex 1.79094 0.0109558 20
    endloop
  endfacet
  facet normal 0 -1 -0
    outer loop
      vertex 11 0.0109558 7
      vertex 1.79094 0.0109558 0
      vertex 11.0437 0.0109558 6.58418
    endloop
  endfacet
  facet normal 0 -1 -0
    outer loop
      vertex 11.0437 0.0109558 6.58418
      vertex 1.79094 0.0109558 0
      vertex 11.1729 0.0109558 6.18653
    endloop
  endfacet
  facet normal 0 -1 0
    outer loop
      vertex 37.2091 0.0109558 0
      vertex 12.7909 0.0109558 5.01096
      vertex 1.79094 0.0109558 0
    endloop
  endfacet
  facet normal 0 -1 -0
    outer loop
      vertex 12.382 0.0109558 5.09789
      vertex 1.79094 0.0109558 0
      vertex 12.7909 0.0109558 5.01096
    endloop
  endfacet
  facet normal 0 -1 -0
    outer loop
      vertex 12 0.0109558 5.26795
      vertex 1.79094 0.0109558 0
      vertex 12.382 0.0109558 5.09789
    endloop
  endfacet
  facet normal 0 -1 -0
    outer loop
      vertex 11.6617 0.0109558 5.51371
      vertex 1.79094 0.0109558 0
      vertex 12 0.0109558 5.26795
    endloop
  endfacet
  facet normal 0 -1 -0
    outer loop
      vertex 11.382 0.0109558 5.82443
      vertex 1.79094 0.0109558 0
      vertex 11.6617 0.0109558 5.51371
    endloop
  endfacet
  facet normal 0 -1 -0
    outer loop
      vertex 11.1729 0.0109558 6.18653
      vertex 1.79094 0.0109558 0
      vertex 11.382 0.0109558 5.82443
    endloop
  endfacet
  facet normal 0 -1 0
    outer loop
      vertex 29 0.0109558 7
      vertex 37.2091 0.0109558 20
      vertex 29 0.0109558 20
    endloop
  endfacet
  facet normal 0 -1 0
    outer loop
      vertex 37.2091 0.0109558 0
      vertex 29 0.0109558 7
      vertex 28.9563 0.0109558 6.58418
    endloop
  endfacet
  facet normal 0 -1 0
    outer loop
      vertex 37.2091 0.0109558 0
      vertex 28.9563 0.0109558 6.58418
      vertex 28.8271 0.0109558 6.18653
    endloop
  endfacet
  facet normal 0 -1 0
    outer loop
      vertex 37.2091 0.0109558 0
      vertex 28.8271 0.0109558 6.18653
      vertex 28.618 0.0109558 5.82443
    endloop
  endfacet
  facet normal 0 -1 0
    outer loop
      vertex 29 0.0109558 7
      vertex 37.2091 0.0109558 0
      vertex 37.2091 0.0109558 20
    endloop
  endfacet
  facet normal 0 -1 0
    outer loop
      vertex 28.3383 0.0109558 5.51371
      vertex 37.2091 0.0109558 0
      vertex 28.618 0.0109558 5.82443
    endloop
  endfacet
  facet normal 0 -1 0
    outer loop
      vertex 28 0.0109558 5.26795
      vertex 37.2091 0.0109558 0
      vertex 28.3383 0.0109558 5.51371
    endloop
  endfacet
  facet normal 0 -1 0
    outer loop
      vertex 27.618 0.0109558 5.09789
      vertex 37.2091 0.0109558 0
      vertex 28 0.0109558 5.26795
    endloop
  endfacet
  facet normal 0 -1 0
    outer loop
      vertex 27.2091 0.0109558 5.01096
      vertex 37.2091 0.0109558 0
      vertex 27.618 0.0109558 5.09789
    endloop
  endfacet
  facet normal 0 -1 0
    outer loop
      vertex 12.7909 0.0109558 5.01096
      vertex 37.2091 0.0109558 0
      vertex 27.2091 0.0109558 5.01096
    endloop
  endfacet
  facet normal -0.866026 0.499999 0
    outer loop
      vertex 0.172909 13.8135 0
      vertex 0.381966 14.1756 20
      vertex 0.381966 14.1756 0
    endloop
  endfacet
  facet normal -0.866026 0.499999 0
    outer loop
      vertex 0.381966 14.1756 20
      vertex 0.172909 13.8135 0
      vertex 0.172909 13.8135 20
    endloop
  endfacet
  facet normal 1 -0 0
    outer loop
      vertex 39 2 20
      vertex 39 13 0
      vertex 39 13 20
    endloop
  endfacet
  facet normal 1 0 0
    outer loop
      vertex 39 13 0
      vertex 39 2 20
      vertex 39 2 0
    endloop
  endfacet
  facet normal 0.20791 -0.978148 0
    outer loop
      vertex 37.2091 0.0109558 0
      vertex 37.618 0.0978861 20
      vertex 37.2091 0.0109558 20
    endloop
  endfacet
  facet normal 0.20791 -0.978148 0
    outer loop
      vertex 37.618 0.0978861 20
      vertex 37.2091 0.0109558 0
      vertex 37.618 0.0978861 0
    endloop
  endfacet
  facet normal -0.406738 -0.913545 0
    outer loop
      vertex 0.999999 0.267949 0
      vertex 1.38197 0.0978861 20
      vertex 0.999999 0.267949 20
    endloop
  endfacet
  facet normal -0.406738 -0.913545 -0
    outer loop
      vertex 1.38197 0.0978861 20
      vertex 0.999999 0.267949 0
      vertex 1.38197 0.0978861 0
    endloop
  endfacet
  facet normal -0.994522 -0.104527 0
    outer loop
      vertex 0.043704 1.58418 0
      vertex 0 2 20
      vertex 0 2 0
    endloop
  endfacet
  facet normal -0.994522 -0.104527 0
    outer loop
      vertex 0 2 20
      vertex 0.043704 1.58418 0
      vertex 0.043704 1.58418 20
    endloop
  endfacet
  facet normal -0.866026 -0.499999 0
    outer loop
      vertex 0.381966 0.824429 0
      vertex 0.172909 1.18653 20
      vertex 0.172909 1.18653 0
    endloop
  endfacet
  facet normal -0.866026 -0.499999 0
    outer loop
      vertex 0.172909 1.18653 20
      vertex 0.381966 0.824429 0
      vertex 0.381966 0.824429 20
    endloop
  endfacet
  facet normal 0 0 1
    outer loop
      vertex 37.4135 12.9067 20
      vertex 39 13 20
      vertex 38.9563 13.4158 20
    endloop
  endfacet
  facet normal 0 0 1
    outer loop
      vertex 39 13 20
      vertex 37.5 12.5 20
      vertex 39 2 20
    endloop
  endfacet
  facet normal 0 0 1
    outer loop
      vertex 37.4135 12.9067 20
      vertex 38.9563 13.4158 20
      vertex 38.8271 13.8135 20
    endloop
  endfacet
  facet normal -0 0 1
    outer loop
      vertex 37.5 2.5 20
      vertex 39 2 20
      vertex 37.5 12.5 20
    endloop
  endfacet
  facet normal 0 0 1
    outer loop
      vertex 37.309 13.0878 20
      vertex 38.8271 13.8135 20
      vertex 38.618 14.1756 20
    endloop
  endfacet
  facet normal -0 0 1
    outer loop
      vertex 37.4781 2.29209 20
      vertex 39 2 20
      vertex 37.5 2.5 20
    endloop
  endfacet
  facet normal 0 0 1
    outer loop
      vertex 37.1691 13.2431 20
      vertex 38.618 14.1756 20
      vertex 38.3383 14.4863 20
    endloop
  endfacet
  facet normal -0 0 1
    outer loop
      vertex 37.4135 2.09326 20
      vertex 39 2 20
      vertex 37.4781 2.29209 20
    endloop
  endfacet
  facet normal 0 0 1
    outer loop
      vertex 37.1691 13.2431 20
      vertex 38.3383 14.4863 20
      vertex 38 14.732 20
    endloop
  endfacet
  facet normal 0 0 1
    outer loop
      vertex 39 2 20
      vertex 37.4135 2.09326 20
      vertex 38.9563 1.58418 20
    endloop
  endfacet
  facet normal 0 0 1
    outer loop
      vertex 37 13.366 20
      vertex 38 14.732 20
      vertex 37.618 14.9021 20
    endloop
  endfacet
  facet normal 0 0 1
    outer loop
      vertex 38.9563 1.58418 20
      vertex 37.4135 2.09326 20
      vertex 38.8271 1.18653 20
    endloop
  endfacet
  facet normal -0 0 1
    outer loop
      vertex 37.309 1.91221 20
      vertex 38.8271 1.18653 20
      vertex 37.4135 2.09326 20
    endloop
  endfacet
  facet normal 0 0 1
    outer loop
      vertex 39 13 20
      vertex 37.4781 12.7079 20
      vertex 37.5 12.5 20
    endloop
  endfacet
  facet normal 0 0 1
    outer loop
      vertex 39 13 20
      vertex 37.4135 12.9067 20
      vertex 37.4781 12.7079 20
    endloop
  endfacet
  facet normal 0 0 1
    outer loop
      vertex 38.8271 13.8135 20
      vertex 37.309 13.0878 20
      vertex 37.4135 12.9067 20
    endloop
  endfacet
  facet normal 0 0 1
    outer loop
      vertex 37 13.366 20
      vertex 37.618 14.9021 20
      vertex 37.2091 14.989 20
    endloop
  endfacet
  facet normal 0 0 1
    outer loop
      vertex 38.618 14.1756 20
      vertex 37.1691 13.2431 20
      vertex 37.309 13.0878 20
    endloop
  endfacet
  facet normal 0 0 1
    outer loop
      vertex 38 14.732 20
      vertex 37 13.366 20
      vertex 37.1691 13.2431 20
    endloop
  endfacet
  facet normal 0 0 1
    outer loop
      vertex 37.2091 14.989 20
      vertex 36.809 13.4511 20
      vertex 37 13.366 20
    endloop
  endfacet
  facet normal 0 0 1
    outer loop
      vertex 37.2091 14.989 20
      vertex 36.6045 13.4945 20
      vertex 36.809 13.4511 20
    endloop
  endfacet
  facet normal 0 0 1
    outer loop
      vertex 37.2091 14.989 20
      vertex 2.39547 13.4945 20
      vertex 36.6045 13.4945 20
    endloop
  endfacet
  facet normal -0 0 1
    outer loop
      vertex 1.79094 14.989 20
      vertex 2.39547 13.4945 20
      vertex 37.2091 14.989 20
    endloop
  endfacet
  facet normal 0 0 1
    outer loop
      vertex 1.79094 14.989 20
      vertex 2.19098 13.4511 20
      vertex 2.39547 13.4945 20
    endloop
  endfacet
  facet normal 0 0 1
    outer loop
      vertex 1.79094 14.989 20
      vertex 2 13.366 20
      vertex 2.19098 13.4511 20
    endloop
  endfacet
  facet normal -0 0 1
    outer loop
      vertex 1.38197 14.9021 20
      vertex 2 13.366 20
      vertex 1.79094 14.989 20
    endloop
  endfacet
  facet normal -0 0 1
    outer loop
      vertex 1 14.732 20
      vertex 2 13.366 20
      vertex 1.38197 14.9021 20
    endloop
  endfacet
  facet normal 0 0 1
    outer loop
      vertex 2 13.366 20
      vertex 1 14.732 20
      vertex 1.83087 13.2431 20
    endloop
  endfacet
  facet normal -0 0 1
    outer loop
      vertex 0.661738 14.4863 20
      vertex 1.83087 13.2431 20
      vertex 1 14.732 20
    endloop
  endfacet
  facet normal -0 0 1
    outer loop
      vertex 0.172909 13.8135 20
      vertex 1.69098 13.0878 20
      vertex 0.381966 14.1756 20
    endloop
  endfacet
  facet normal 0 0 1
    outer loop
      vertex 1.83087 13.2431 20
      vertex 0.381966 14.1756 20
      vertex 1.69098 13.0878 20
    endloop
  endfacet
  facet normal -0 0 1
    outer loop
      vertex 0.381966 14.1756 20
      vertex 1.83087 13.2431 20
      vertex 0.661738 14.4863 20
    endloop
  endfacet
  facet normal 0 0 1
    outer loop
      vertex 38.8271 1.18653 20
      vertex 37.309 1.91221 20
      vertex 38.618 0.824429 20
    endloop
  endfacet
  facet normal -0 0 1
    outer loop
      vertex 37.1691 1.75686 20
      vertex 38.618 0.824429 20
      vertex 37.309 1.91221 20
    endloop
  endfacet
  facet normal 0 0 1
    outer loop
      vertex 38.618 0.824429 20
      vertex 37.1691 1.75686 20
      vertex 38.3383 0.51371 20
    endloop
  endfacet
  facet normal 0 0 1
    outer loop
      vertex 38.3383 0.51371 20
      vertex 37.1691 1.75686 20
      vertex 38 0.267949 20
    endloop
  endfacet
  facet normal -0 0 1
    outer loop
      vertex 37 1.63397 20
      vertex 38 0.267949 20
      vertex 37.1691 1.75686 20
    endloop
  endfacet
  facet normal 0 0 1
    outer loop
      vertex 38 0.267949 20
      vertex 37 1.63397 20
      vertex 37.618 0.0978861 20
    endloop
  endfacet
  facet normal 0 0 1
    outer loop
      vertex 37.618 0.0978861 20
      vertex 37 1.63397 20
      vertex 37.2091 0.0109558 20
    endloop
  endfacet
  facet normal -0 0 1
    outer loop
      vertex 36.809 1.54894 20
      vertex 37.2091 0.0109558 20
      vertex 37 1.63397 20
    endloop
  endfacet
  facet normal -0 0 1
    outer loop
      vertex 36.6045 1.50548 20
      vertex 37.2091 0.0109558 20
      vertex 36.809 1.54894 20
    endloop
  endfacet
  facet normal 0 0 1
    outer loop
      vertex 29 0.0109558 20
      vertex 36.6045 1.50548 20
      vertex 29 1.50548 20
    endloop
  endfacet
  facet normal 0 0 1
    outer loop
      vertex 36.6045 1.50548 20
      vertex 29 0.0109558 20
      vertex 37.2091 0.0109558 20
    endloop
  endfacet
  facet normal -0 0 1
    outer loop
      vertex 2.39547 1.50548 20
      vertex 11 0.0109558 20
      vertex 11 1.50548 20
    endloop
  endfacet
  facet normal 0 0 1
    outer loop
      vertex 2.39547 1.50548 20
      vertex 1.79094 0.0109558 20
      vertex 11 0.0109558 20
    endloop
  endfacet
  facet normal 0 0 1
    outer loop
      vertex 2.19098 1.54894 20
      vertex 1.79094 0.0109558 20
      vertex 2.39547 1.50548 20
    endloop
  endfacet
  facet normal 0 0 1
    outer loop
      vertex 2 1.63397 20
      vertex 1.79094 0.0109558 20
      vertex 2.19098 1.54894 20
    endloop
  endfacet
  facet normal 0 0 1
    outer loop
      vertex 0.999999 0.267949 20
      vertex 2 1.63397 20
      vertex 1.83087 1.75686 20
    endloop
  endfacet
  facet normal 0 0 1
    outer loop
      vertex 0.381966 0.824429 20
      vertex 1.83087 1.75686 20
      vertex 1.69098 1.91221 20
    endloop
  endfacet
  facet normal 0 0 1
    outer loop
      vertex 0.172909 1.18653 20
      vertex 1.69098 1.91221 20
      vertex 1.58645 2.09326 20
    endloop
  endfacet
  facet normal 0 0 1
    outer loop
      vertex 0 2 20
      vertex 1.58645 2.09326 20
      vertex 1.52185 2.29209 20
    endloop
  endfacet
  facet normal 0 0 1
    outer loop
      vertex 2 1.63397 20
      vertex 1.38197 0.0978861 20
      vertex 1.79094 0.0109558 20
    endloop
  endfacet
  facet normal 0 0 1
    outer loop
      vertex 0 2 20
      vertex 1.52185 2.29209 20
      vertex 1.5 2.5 20
    endloop
  endfacet
  facet normal 0 0 1
    outer loop
      vertex 1.5 12.5 20
      vertex 0 13 20
      vertex 1.5 2.5 20
    endloop
  endfacet
  facet normal 0 0 1
    outer loop
      vertex 1.69098 13.0878 20
      vertex 0.172909 13.8135 20
      vertex 1.58645 12.9067 20
    endloop
  endfacet
  facet normal 0 0 1
    outer loop
      vertex 0 2 20
      vertex 1.5 2.5 20
      vertex 0 13 20
    endloop
  endfacet
  facet normal -0 0 1
    outer loop
      vertex 0.043704 13.4158 20
      vertex 1.58645 12.9067 20
      vertex 0.172909 13.8135 20
    endloop
  endfacet
  facet normal 0 0 1
    outer loop
      vertex 1.58645 2.09326 20
      vertex 0 2 20
      vertex 0.043704 1.58418 20
    endloop
  endfacet
  facet normal -0 0 1
    outer loop
      vertex 0 13 20
      vertex 1.58645 12.9067 20
      vertex 0.043704 13.4158 20
    endloop
  endfacet
  facet normal 0 0 1
    outer loop
      vertex 2 1.63397 20
      vertex 0.999999 0.267949 20
      vertex 1.38197 0.0978861 20
    endloop
  endfacet
  facet normal 0 0 1
    outer loop
      vertex 1.58645 12.9067 20
      vertex 0 13 20
      vertex 1.52185 12.7079 20
    endloop
  endfacet
  facet normal 0 0 1
    outer loop
      vertex 1.83087 1.75686 20
      vertex 0.661738 0.51371 20
      vertex 0.999999 0.267949 20
    endloop
  endfacet
  facet normal 0 0 1
    outer loop
      vertex 1.52185 12.7079 20
      vertex 0 13 20
      vertex 1.5 12.5 20
    endloop
  endfacet
  facet normal 0 0 1
    outer loop
      vertex 1.83087 1.75686 20
      vertex 0.381966 0.824429 20
      vertex 0.661738 0.51371 20
    endloop
  endfacet
  facet normal 0 0 1
    outer loop
      vertex 1.69098 1.91221 20
      vertex 0.172909 1.18653 20
      vertex 0.381966 0.824429 20
    endloop
  endfacet
  facet normal 0 0 1
    outer loop
      vertex 1.58645 2.09326 20
      vertex 0.043704 1.58418 20
      vertex 0.172909 1.18653 20
    endloop
  endfacet
  facet normal 0 1 -0
    outer loop
      vertex 37.2091 14.989 0
      vertex 1.79094 14.989 20
      vertex 37.2091 14.989 20
    endloop
  endfacet
  facet normal 0 1 0
    outer loop
      vertex 1.79094 14.989 20
      vertex 37.2091 14.989 0
      vertex 1.79094 14.989 0
    endloop
  endfacet
  facet normal 0.587786 0.809017 -0
    outer loop
      vertex 38.3383 14.4863 0
      vertex 38 14.732 20
      vertex 38.3383 14.4863 20
    endloop
  endfacet
  facet normal 0.587786 0.809017 0
    outer loop
      vertex 38 14.732 20
      vertex 38.3383 14.4863 0
      vertex 38 14.732 0
    endloop
  endfacet
  facet normal 0.994522 0.104529 0
    outer loop
      vertex 39 13 20
      vertex 38.9563 13.4158 0
      vertex 38.9563 13.4158 20
    endloop
  endfacet
  facet normal 0.994522 0.104529 0
    outer loop
      vertex 38.9563 13.4158 0
      vertex 39 13 20
      vertex 39 13 0
    endloop
  endfacet
  facet normal -0.743144 -0.669131 0
    outer loop
      vertex 0.661738 0.51371 0
      vertex 0.381966 0.824429 20
      vertex 0.381966 0.824429 0
    endloop
  endfacet
  facet normal -0.743144 -0.669131 0
    outer loop
      vertex 0.381966 0.824429 20
      vertex 0.661738 0.51371 0
      vertex 0.661738 0.51371 20
    endloop
  endfacet
  facet normal -0.951056 -0.309018 0
    outer loop
      vertex 0.172909 1.18653 0
      vertex 0.043704 1.58418 20
      vertex 0.043704 1.58418 0
    endloop
  endfacet
  facet normal -0.951056 -0.309018 0
    outer loop
      vertex 0.043704 1.58418 20
      vertex 0.172909 1.18653 0
      vertex 0.172909 1.18653 20
    endloop
  endfacet
  facet normal 0 0 -1
    outer loop
      vertex 37.2091 0.0109558 0
      vertex 39 2 0
      vertex 38.9563 1.58418 0
    endloop
  endfacet
  facet normal -0 0 -1
    outer loop
      vertex 39 2 0
      vertex 37.2091 0.0109558 0
      vertex 39 13 0
    endloop
  endfacet
  facet normal 0 0 -1
    outer loop
      vertex 37.2091 0.0109558 0
      vertex 38.9563 1.58418 0
      vertex 38.8271 1.18653 0
    endloop
  endfacet
  facet normal 0 0 -1
    outer loop
      vertex 37.2091 14.989 0
      vertex 39 13 0
      vertex 37.2091 0.0109558 0
    endloop
  endfacet
  facet normal 0 0 -1
    outer loop
      vertex 37.2091 0.0109558 0
      vertex 38.8271 1.18653 0
      vertex 38.618 0.824429 0
    endloop
  endfacet
  facet normal 0 0 -1
    outer loop
      vertex 39 13 0
      vertex 37.2091 14.989 0
      vertex 38.9563 13.4158 0
    endloop
  endfacet
  facet normal 0 0 -1
    outer loop
      vertex 37.2091 0.0109558 0
      vertex 38.618 0.824429 0
      vertex 38.3383 0.51371 0
    endloop
  endfacet
  facet normal 0 0 -1
    outer loop
      vertex 38.9563 13.4158 0
      vertex 37.2091 14.989 0
      vertex 38.8271 13.8135 0
    endloop
  endfacet
  facet normal 0 0 -1
    outer loop
      vertex 37.2091 0.0109558 0
      vertex 38.3383 0.51371 0
      vertex 38 0.267949 0
    endloop
  endfacet
  facet normal 0 0 -1
    outer loop
      vertex 38.8271 13.8135 0
      vertex 37.2091 14.989 0
      vertex 38.618 14.1756 0
    endloop
  endfacet
  facet normal 0 0 -1
    outer loop
      vertex 37.2091 0.0109558 0
      vertex 38 0.267949 0
      vertex 37.618 0.0978861 0
    endloop
  endfacet
  facet normal 0 0 -1
    outer loop
      vertex 38.618 14.1756 0
      vertex 37.2091 14.989 0
      vertex 38.3383 14.4863 0
    endloop
  endfacet
  facet normal 0 0 -1
    outer loop
      vertex 38.3383 14.4863 0
      vertex 37.2091 14.989 0
      vertex 38 14.732 0
    endloop
  endfacet
  facet normal 0 0 -1
    outer loop
      vertex 38 14.732 0
      vertex 37.2091 14.989 0
      vertex 37.618 14.9021 0
    endloop
  endfacet
  facet normal 0 0 -1
    outer loop
      vertex 1.79094 0.0109558 0
      vertex 37.2091 14.989 0
      vertex 37.2091 0.0109558 0
    endloop
  endfacet
  facet normal 0 0 -1
    outer loop
      vertex 1.79094 0.0109558 0
      vertex 1.79094 14.989 0
      vertex 37.2091 14.989 0
    endloop
  endfacet
  facet normal 0 0 -1
    outer loop
      vertex 0 2 0
      vertex 1.79094 0.0109558 0
      vertex 1.38197 0.0978861 0
    endloop
  endfacet
  facet normal 0 0 -1
    outer loop
      vertex 1.79094 0.0109558 0
      vertex 0 2 0
      vertex 1.79094 14.989 0
    endloop
  endfacet
  facet normal 0 0 -1
    outer loop
      vertex 1.79094 14.989 0
      vertex 0 13 0
      vertex 1.38197 14.9021 0
    endloop
  endfacet
  facet normal 0 0 -1
    outer loop
      vertex 0 2 0
      vertex 1.38197 0.0978861 0
      vertex 0.999999 0.267949 0
    endloop
  endfacet
  facet normal 0 0 -1
    outer loop
      vertex 0 2 0
      vertex 0.999999 0.267949 0
      vertex 0.661738 0.51371 0
    endloop
  endfacet
  facet normal 0 0 -1
    outer loop
      vertex 1.79094 14.989 0
      vertex 0 2 0
      vertex 0 13 0
    endloop
  endfacet
  facet normal 0 0 -1
    outer loop
      vertex 0 2 0
      vertex 0.661738 0.51371 0
      vertex 0.381966 0.824429 0
    endloop
  endfacet
  facet normal 0 0 -1
    outer loop
      vertex 1.38197 14.9021 0
      vertex 0 13 0
      vertex 1 14.732 0
    endloop
  endfacet
  facet normal 0 0 -1
    outer loop
      vertex 0 2 0
      vertex 0.381966 0.824429 0
      vertex 0.172909 1.18653 0
    endloop
  endfacet
  facet normal 0 0 -1
    outer loop
      vertex 1 14.732 0
      vertex 0 13 0
      vertex 0.661738 14.4863 0
    endloop
  endfacet
  facet normal 0 0 -1
    outer loop
      vertex 0 2 0
      vertex 0.172909 1.18653 0
      vertex 0.043704 1.58418 0
    endloop
  endfacet
  facet normal 0 0 -1
    outer loop
      vertex 0.661738 14.4863 0
      vertex 0 13 0
      vertex 0.381966 14.1756 0
    endloop
  endfacet
  facet normal 0 0 -1
    outer loop
      vertex 0.381966 14.1756 0
      vertex 0 13 0
      vertex 0.172909 13.8135 0
    endloop
  endfacet
  facet normal 0 0 -1
    outer loop
      vertex 0.172909 13.8135 0
      vertex 0 13 0
      vertex 0.043704 13.4158 0
    endloop
  endfacet
  facet normal -0.951056 0.309018 0
    outer loop
      vertex 0.043704 13.4158 0
      vertex 0.172909 13.8135 20
      vertex 0.172909 13.8135 0
    endloop
  endfacet
  facet normal -0.951056 0.309018 0
    outer loop
      vertex 0.172909 13.8135 20
      vertex 0.043704 13.4158 0
      vertex 0.043704 13.4158 20
    endloop
  endfacet
  facet normal -0.406739 0.913545 0
    outer loop
      vertex 1.38197 14.9021 0
      vertex 1 14.732 20
      vertex 1.38197 14.9021 20
    endloop
  endfacet
  facet normal -0.406739 0.913545 0
    outer loop
      vertex 1 14.732 20
      vertex 1.38197 14.9021 0
      vertex 1 14.732 0
    endloop
  endfacet
  facet normal -0.743144 0.669131 0
    outer loop
      vertex 0.381966 14.1756 0
      vertex 0.661738 14.4863 20
      vertex 0.661738 14.4863 0
    endloop
  endfacet
  facet normal -0.743144 0.669131 0
    outer loop
      vertex 0.661738 14.4863 20
      vertex 0.381966 14.1756 0
      vertex 0.381966 14.1756 20
    endloop
  endfacet
  facet normal 0.743143 -0.669133 0
    outer loop
      vertex 38.3383 0.51371 20
      vertex 38.618 0.824429 0
      vertex 38.618 0.824429 20
    endloop
  endfacet
  facet normal 0.743143 -0.669133 0
    outer loop
      vertex 38.618 0.824429 0
      vertex 38.3383 0.51371 20
      vertex 38.3383 0.51371 0
    endloop
  endfacet
  facet normal 0.994522 -0.104529 0
    outer loop
      vertex 38.9563 1.58418 20
      vertex 39 2 0
      vertex 39 2 20
    endloop
  endfacet
  facet normal 0.994522 -0.104529 0
    outer loop
      vertex 39 2 0
      vertex 38.9563 1.58418 20
      vertex 38.9563 1.58418 0
    endloop
  endfacet
  facet normal -0.207911 -0.978148 0
    outer loop
      vertex 1.38197 0.0978861 0
      vertex 1.79094 0.0109558 20
      vertex 1.38197 0.0978861 20
    endloop
  endfacet
  facet normal -0.207911 -0.978148 -0
    outer loop
      vertex 1.79094 0.0109558 20
      vertex 1.38197 0.0978861 0
      vertex 1.79094 0.0109558 0
    endloop
  endfacet
  facet normal -0.587786 -0.809017 0
    outer loop
      vertex 0.661738 0.51371 0
      vertex 0.999999 0.267949 20
      vertex 0.661738 0.51371 20
    endloop
  endfacet
  facet normal -0.587786 -0.809017 -0
    outer loop
      vertex 0.999999 0.267949 20
      vertex 0.661738 0.51371 0
      vertex 0.999999 0.267949 0
    endloop
  endfacet
  facet normal -0.587784 0.809018 0
    outer loop
      vertex 1 14.732 0
      vertex 0.661738 14.4863 20
      vertex 1 14.732 20
    endloop
  endfacet
  facet normal -0.587784 0.809018 0
    outer loop
      vertex 0.661738 14.4863 20
      vertex 1 14.732 0
      vertex 0.661738 14.4863 0
    endloop
  endfacet
  facet normal 0.866026 0.499999 0
    outer loop
      vertex 38.8271 13.8135 20
      vertex 38.618 14.1756 0
      vertex 38.618 14.1756 20
    endloop
  endfacet
  facet normal 0.866026 0.499999 0
    outer loop
      vertex 38.618 14.1756 0
      vertex 38.8271 13.8135 20
      vertex 38.8271 13.8135 0
    endloop
  endfacet
  facet normal 0.406739 -0.913545 0
    outer loop
      vertex 37.618 0.0978861 0
      vertex 38 0.267949 20
      vertex 37.618 0.0978861 20
    endloop
  endfacet
  facet normal 0.406739 -0.913545 0
    outer loop
      vertex 38 0.267949 20
      vertex 37.618 0.0978861 0
      vertex 38 0.267949 0
    endloop
  endfacet
  facet normal 0.866026 -0.499999 0
    outer loop
      vertex 38.618 0.824429 20
      vertex 38.8271 1.18653 0
      vertex 38.8271 1.18653 20
    endloop
  endfacet
  facet normal 0.866026 -0.499999 0
    outer loop
      vertex 38.8271 1.18653 0
      vertex 38.618 0.824429 20
      vertex 38.618 0.824429 0
    endloop
  endfacet
  facet normal 0.951057 0.309016 0
    outer loop
      vertex 38.9563 13.4158 20
      vertex 38.8271 13.8135 0
      vertex 38.8271 13.8135 20
    endloop
  endfacet
  facet normal 0.951057 0.309016 0
    outer loop
      vertex 38.8271 13.8135 0
      vertex 38.9563 13.4158 20
      vertex 38.9563 13.4158 0
    endloop
  endfacet
  facet normal 0.20791 0.978148 -0
    outer loop
      vertex 37.618 14.9021 0
      vertex 37.2091 14.989 20
      vertex 37.618 14.9021 20
    endloop
  endfacet
  facet normal 0.20791 0.978148 0
    outer loop
      vertex 37.2091 14.989 20
      vertex 37.618 14.9021 0
      vertex 37.2091 14.989 0
    endloop
  endfacet
  facet normal 0.406739 0.913545 -0
    outer loop
      vertex 38 14.732 0
      vertex 37.618 14.9021 20
      vertex 38 14.732 20
    endloop
  endfacet
  facet normal 0.406739 0.913545 0
    outer loop
      vertex 37.618 14.9021 20
      vertex 38 14.732 0
      vertex 37.618 14.9021 0
    endloop
  endfacet
  facet normal 0.587786 -0.809017 0
    outer loop
      vertex 38 0.267949 0
      vertex 38.3383 0.51371 20
      vertex 38 0.267949 20
    endloop
  endfacet
  facet normal 0.587786 -0.809017 0
    outer loop
      vertex 38.3383 0.51371 20
      vertex 38 0.267949 0
      vertex 38.3383 0.51371 0
    endloop
  endfacet
  facet normal 0.951057 -0.309016 0
    outer loop
      vertex 38.8271 1.18653 20
      vertex 38.9563 1.58418 0
      vertex 38.9563 1.58418 20
    endloop
  endfacet
  facet normal 0.951057 -0.309016 0
    outer loop
      vertex 38.9563 1.58418 0
      vertex 38.8271 1.18653 20
      vertex 38.8271 1.18653 0
    endloop
  endfacet
  facet normal 0.743143 0.669133 0
    outer loop
      vertex 38.618 14.1756 20
      vertex 38.3383 14.4863 0
      vertex 38.3383 14.4863 20
    endloop
  endfacet
  facet normal 0.743143 0.669133 0
    outer loop
      vertex 38.3383 14.4863 0
      vertex 38.618 14.1756 20
      vertex 38.618 14.1756 0
    endloop
  endfacet
  facet normal 1 -0 0
    outer loop
      vertex 1.5 2.5 20
      vertex 1.5 12.5 3
      vertex 1.5 12.5 20
    endloop
  endfacet
  facet normal 1 0 0
    outer loop
      vertex 1.5 12.5 3
      vertex 1.5 2.5 20
      vertex 1.5 2.5 3
    endloop
  endfacet
  facet normal 0.743145 -0.66913 0
    outer loop
      vertex 1.69098 13.0878 20
      vertex 1.83087 13.2431 3
      vertex 1.83087 13.2431 20
    endloop
  endfacet
  facet normal 0.743145 -0.66913 0
    outer loop
      vertex 1.83087 13.2431 3
      vertex 1.69098 13.0878 20
      vertex 1.69098 13.0878 3
    endloop
  endfacet
  facet normal 0 1 0
    outer loop
      vertex 36.6045 1.50548 20
      vertex 29 1.50548 7
      vertex 29 1.50548 20
    endloop
  endfacet
  facet normal 0 1 -0
    outer loop
      vertex 36.6045 1.50548 3
      vertex 29 1.50548 7
      vertex 36.6045 1.50548 20
    endloop
  endfacet
  facet normal 0 1 0
    outer loop
      vertex 29 1.50548 7
      vertex 36.6045 1.50548 3
      vertex 28.9563 1.50548 6.58418
    endloop
  endfacet
  facet normal 0 1 0
    outer loop
      vertex 27.2091 1.50548 5.01096
      vertex 36.6045 1.50548 3
      vertex 12.7909 1.50548 5.01096
    endloop
  endfacet
  facet normal 0 1 0
    outer loop
      vertex 27.618 1.50548 5.09789
      vertex 36.6045 1.50548 3
      vertex 27.2091 1.50548 5.01096
    endloop
  endfacet
  facet normal 0 1 0
    outer loop
      vertex 28 1.50548 5.26795
      vertex 36.6045 1.50548 3
      vertex 27.618 1.50548 5.09789
    endloop
  endfacet
  facet normal 0 1 0
    outer loop
      vertex 28.3383 1.50548 5.51371
      vertex 36.6045 1.50548 3
      vertex 28 1.50548 5.26795
    endloop
  endfacet
  facet normal 0 1 0
    outer loop
      vertex 28.618 1.50548 5.82443
      vertex 36.6045 1.50548 3
      vertex 28.3383 1.50548 5.51371
    endloop
  endfacet
  facet normal 0 1 0
    outer loop
      vertex 28.8271 1.50548 6.18653
      vertex 36.6045 1.50548 3
      vertex 28.618 1.50548 5.82443
    endloop
  endfacet
  facet normal 0 1 0
    outer loop
      vertex 28.9563 1.50548 6.58418
      vertex 36.6045 1.50548 3
      vertex 28.8271 1.50548 6.18653
    endloop
  endfacet
  facet normal 0 1 -0
    outer loop
      vertex 11 1.50548 7
      vertex 2.39547 1.50548 20
      vertex 11 1.50548 20
    endloop
  endfacet
  facet normal 0 1 0
    outer loop
      vertex 2.39547 1.50548 3
      vertex 11 1.50548 7
      vertex 11.0437 1.50548 6.58418
    endloop
  endfacet
  facet normal 0 1 0
    outer loop
      vertex 2.39547 1.50548 3
      vertex 11.0437 1.50548 6.58418
      vertex 11.1729 1.50548 6.18653
    endloop
  endfacet
  facet normal 0 1 0
    outer loop
      vertex 2.39547 1.50548 3
      vertex 11.1729 1.50548 6.18653
      vertex 11.382 1.50548 5.82443
    endloop
  endfacet
  facet normal 0 1 0
    outer loop
      vertex 11 1.50548 7
      vertex 2.39547 1.50548 3
      vertex 2.39547 1.50548 20
    endloop
  endfacet
  facet normal 0 1 0
    outer loop
      vertex 11.6617 1.50548 5.51371
      vertex 2.39547 1.50548 3
      vertex 11.382 1.50548 5.82443
    endloop
  endfacet
  facet normal 0 1 0
    outer loop
      vertex 12 1.50548 5.26795
      vertex 2.39547 1.50548 3
      vertex 11.6617 1.50548 5.51371
    endloop
  endfacet
  facet normal 0 1 0
    outer loop
      vertex 12.382 1.50548 5.09789
      vertex 2.39547 1.50548 3
      vertex 12 1.50548 5.26795
    endloop
  endfacet
  facet normal 0 1 0
    outer loop
      vertex 12.7909 1.50548 5.01096
      vertex 2.39547 1.50548 3
      vertex 12.382 1.50548 5.09789
    endloop
  endfacet
  facet normal 0 1 0
    outer loop
      vertex 2.39547 1.50548 3
      vertex 12.7909 1.50548 5.01096
      vertex 36.6045 1.50548 3
    endloop
  endfacet
  facet normal -0.20791 0.978148 0
    outer loop
      vertex 36.809 1.54894 3
      vertex 36.6045 1.50548 20
      vertex 36.809 1.54894 20
    endloop
  endfacet
  facet normal -0.20791 0.978148 0
    outer loop
      vertex 36.6045 1.50548 20
      vertex 36.809 1.54894 3
      vertex 36.6045 1.50548 3
    endloop
  endfacet
  facet normal 0.207909 0.978148 -0
    outer loop
      vertex 2.39547 1.50548 3
      vertex 2.19098 1.54894 20
      vertex 2.39547 1.50548 20
    endloop
  endfacet
  facet normal 0.207909 0.978148 0
    outer loop
      vertex 2.19098 1.54894 20
      vertex 2.39547 1.50548 3
      vertex 2.19098 1.54894 3
    endloop
  endfacet
  facet normal -1 0 0
    outer loop
      vertex 37.5 2.5 3
      vertex 37.5 12.5 20
      vertex 37.5 12.5 3
    endloop
  endfacet
  facet normal -1 -0 0
    outer loop
      vertex 37.5 12.5 20
      vertex 37.5 2.5 3
      vertex 37.5 2.5 20
    endloop
  endfacet
  facet normal 0 -1 0
    outer loop
      vertex 2.39547 13.4945 3
      vertex 36.6045 13.4945 20
      vertex 2.39547 13.4945 20
    endloop
  endfacet
  facet normal 0 -1 -0
    outer loop
      vertex 36.6045 13.4945 20
      vertex 2.39547 13.4945 3
      vertex 36.6045 13.4945 3
    endloop
  endfacet
  facet normal -0.994523 -0.10452 0
    outer loop
      vertex 37.5 12.5 3
      vertex 37.4781 12.7079 20
      vertex 37.4781 12.7079 3
    endloop
  endfacet
  facet normal -0.994523 -0.10452 0
    outer loop
      vertex 37.4781 12.7079 20
      vertex 37.5 12.5 3
      vertex 37.5 12.5 20
    endloop
  endfacet
  facet normal -0.951051 0.309033 0
    outer loop
      vertex 37.4135 2.09326 3
      vertex 37.4781 2.29209 20
      vertex 37.4781 2.29209 3
    endloop
  endfacet
  facet normal -0.951051 0.309033 0
    outer loop
      vertex 37.4781 2.29209 20
      vertex 37.4135 2.09326 3
      vertex 37.4135 2.09326 20
    endloop
  endfacet
  facet normal 0.587787 0.809016 -0
    outer loop
      vertex 2 1.63397 3
      vertex 1.83087 1.75686 20
      vertex 2 1.63397 20
    endloop
  endfacet
  facet normal 0.587787 0.809016 0
    outer loop
      vertex 1.83087 1.75686 20
      vertex 2 1.63397 3
      vertex 1.83087 1.75686 3
    endloop
  endfacet
  facet normal 0.866025 0.5 0
    outer loop
      vertex 1.69098 1.91221 20
      vertex 1.58645 2.09326 3
      vertex 1.58645 2.09326 20
    endloop
  endfacet
  facet normal 0.866025 0.5 0
    outer loop
      vertex 1.58645 2.09326 3
      vertex 1.69098 1.91221 20
      vertex 1.69098 1.91221 3
    endloop
  endfacet
  facet normal 0.994522 0.104524 0
    outer loop
      vertex 1.52185 2.29209 20
      vertex 1.5 2.5 3
      vertex 1.5 2.5 20
    endloop
  endfacet
  facet normal 0.994522 0.104524 0
    outer loop
      vertex 1.5 2.5 3
      vertex 1.52185 2.29209 20
      vertex 1.52185 2.29209 3
    endloop
  endfacet
  facet normal 0 0 1
    outer loop
      vertex 36.6045 13.4945 3
      vertex 37.5 12.5 3
      vertex 37.4781 12.7079 3
    endloop
  endfacet
  facet normal 0 0 1
    outer loop
      vertex 37.5 12.5 3
      vertex 36.6045 13.4945 3
      vertex 37.5 2.5 3
    endloop
  endfacet
  facet normal 0 0 1
    outer loop
      vertex 36.6045 13.4945 3
      vertex 37.4781 12.7079 3
      vertex 37.4135 12.9067 3
    endloop
  endfacet
  facet normal 0 0 1
    outer loop
      vertex 36.6045 1.50548 3
      vertex 37.5 2.5 3
      vertex 36.6045 13.4945 3
    endloop
  endfacet
  facet normal 0 0 1
    outer loop
      vertex 36.6045 13.4945 3
      vertex 37.4135 12.9067 3
      vertex 37.309 13.0878 3
    endloop
  endfacet
  facet normal 0 0 1
    outer loop
      vertex 37.5 2.5 3
      vertex 36.6045 1.50548 3
      vertex 37.4781 2.29209 3
    endloop
  endfacet
  facet normal 0 0 1
    outer loop
      vertex 36.6045 13.4945 3
      vertex 37.309 13.0878 3
      vertex 37.1691 13.2431 3
    endloop
  endfacet
  facet normal 0 0 1
    outer loop
      vertex 37.4781 2.29209 3
      vertex 36.6045 1.50548 3
      vertex 37.4135 2.09326 3
    endloop
  endfacet
  facet normal 0 0 1
    outer loop
      vertex 36.6045 13.4945 3
      vertex 37.1691 13.2431 3
      vertex 37 13.366 3
    endloop
  endfacet
  facet normal 0 0 1
    outer loop
      vertex 37.4135 2.09326 3
      vertex 36.6045 1.50548 3
      vertex 37.309 1.91221 3
    endloop
  endfacet
  facet normal 0 0 1
    outer loop
      vertex 36.6045 13.4945 3
      vertex 37 13.366 3
      vertex 36.809 13.4511 3
    endloop
  endfacet
  facet normal 0 0 1
    outer loop
      vertex 37.309 1.91221 3
      vertex 36.6045 1.50548 3
      vertex 37.1691 1.75686 3
    endloop
  endfacet
  facet normal 0 0 1
    outer loop
      vertex 37.1691 1.75686 3
      vertex 36.6045 1.50548 3
      vertex 37 1.63397 3
    endloop
  endfacet
  facet normal 0 0 1
    outer loop
      vertex 37 1.63397 3
      vertex 36.6045 1.50548 3
      vertex 36.809 1.54894 3
    endloop
  endfacet
  facet normal -0 0 1
    outer loop
      vertex 2.39547 13.4945 3
      vertex 36.6045 1.50548 3
      vertex 36.6045 13.4945 3
    endloop
  endfacet
  facet normal 0 0 1
    outer loop
      vertex 2.39547 13.4945 3
      vertex 2.39547 1.50548 3
      vertex 36.6045 1.50548 3
    endloop
  endfacet
  facet normal 0 0 1
    outer loop
      vertex 1.5 12.5 3
      vertex 2.39547 13.4945 3
      vertex 2.19098 13.4511 3
    endloop
  endfacet
  facet normal 0 0 1
    outer loop
      vertex 2.39547 13.4945 3
      vertex 1.5 12.5 3
      vertex 2.39547 1.50548 3
    endloop
  endfacet
  facet normal 0 0 1
    outer loop
      vertex 1.5 12.5 3
      vertex 2.19098 13.4511 3
      vertex 2 13.366 3
    endloop
  endfacet
  facet normal -0 0 1
    outer loop
      vertex 1.5 2.5 3
      vertex 2.39547 1.50548 3
      vertex 1.5 12.5 3
    endloop
  endfacet
  facet normal 0 0 1
    outer loop
      vertex 1.5 12.5 3
      vertex 2 13.366 3
      vertex 1.83087 13.2431 3
    endloop
  endfacet
  facet normal 0 0 1
    outer loop
      vertex 2.39547 1.50548 3
      vertex 1.5 2.5 3
      vertex 2.19098 1.54894 3
    endloop
  endfacet
  facet normal 0 0 1
    outer loop
      vertex 1.5 12.5 3
      vertex 1.83087 13.2431 3
      vertex 1.69098 13.0878 3
    endloop
  endfacet
  facet normal 0 0 1
    outer loop
      vertex 2.19098 1.54894 3
      vertex 1.5 2.5 3
      vertex 2 1.63397 3
    endloop
  endfacet
  facet normal 0 0 1
    outer loop
      vertex 1.5 12.5 3
      vertex 1.69098 13.0878 3
      vertex 1.58645 12.9067 3
    endloop
  endfacet
  facet normal 0 0 1
    outer loop
      vertex 2 1.63397 3
      vertex 1.5 2.5 3
      vertex 1.83087 1.75686 3
    endloop
  endfacet
  facet normal 0 0 1
    outer loop
      vertex 1.5 12.5 3
      vertex 1.58645 12.9067 3
      vertex 1.52185 12.7079 3
    endloop
  endfacet
  facet normal 0 0 1
    outer loop
      vertex 1.83087 1.75686 3
      vertex 1.5 2.5 3
      vertex 1.69098 1.91221 3
    endloop
  endfacet
  facet normal 0 0 1
    outer loop
      vertex 1.69098 1.91221 3
      vertex 1.5 2.5 3
      vertex 1.58645 2.09326 3
    endloop
  endfacet
  facet normal 0 0 1
    outer loop
      vertex 1.58645 2.09326 3
      vertex 1.5 2.5 3
      vertex 1.52185 2.29209 3
    endloop
  endfacet
  facet normal 0.743145 0.66913 0
    outer loop
      vertex 1.83087 1.75686 20
      vertex 1.69098 1.91221 3
      vertex 1.69098 1.91221 20
    endloop
  endfacet
  facet normal 0.743145 0.66913 0
    outer loop
      vertex 1.69098 1.91221 3
      vertex 1.83087 1.75686 20
      vertex 1.83087 1.75686 3
    endloop
  endfacet
  facet normal -0.406739 0.913545 0
    outer loop
      vertex 37 1.63397 3
      vertex 36.809 1.54894 20
      vertex 37 1.63397 20
    endloop
  endfacet
  facet normal -0.406739 0.913545 0
    outer loop
      vertex 36.809 1.54894 20
      vertex 37 1.63397 3
      vertex 36.809 1.54894 3
    endloop
  endfacet
  facet normal -0.994523 0.10452 0
    outer loop
      vertex 37.4781 2.29209 3
      vertex 37.5 2.5 20
      vertex 37.5 2.5 3
    endloop
  endfacet
  facet normal -0.994523 0.10452 0
    outer loop
      vertex 37.5 2.5 20
      vertex 37.4781 2.29209 3
      vertex 37.4781 2.29209 20
    endloop
  endfacet
  facet normal -0.743139 0.669138 0
    outer loop
      vertex 37.1691 1.75686 3
      vertex 37.309 1.91221 20
      vertex 37.309 1.91221 3
    endloop
  endfacet
  facet normal -0.743139 0.669138 0
    outer loop
      vertex 37.309 1.91221 20
      vertex 37.1691 1.75686 3
      vertex 37.1691 1.75686 20
    endloop
  endfacet
  facet normal 0.406737 0.913545 -0
    outer loop
      vertex 2.19098 1.54894 3
      vertex 2 1.63397 20
      vertex 2.19098 1.54894 20
    endloop
  endfacet
  facet normal 0.406737 0.913545 0
    outer loop
      vertex 2 1.63397 20
      vertex 2.19098 1.54894 3
      vertex 2 1.63397 3
    endloop
  endfacet
  facet normal 0.951055 0.30902 0
    outer loop
      vertex 1.58645 2.09326 20
      vertex 1.52185 2.29209 3
      vertex 1.52185 2.29209 20
    endloop
  endfacet
  facet normal 0.951055 0.30902 0
    outer loop
      vertex 1.52185 2.29209 3
      vertex 1.58645 2.09326 20
      vertex 1.58645 2.09326 3
    endloop
  endfacet
  facet normal 0.207909 -0.978148 0
    outer loop
      vertex 2.19098 13.4511 3
      vertex 2.39547 13.4945 20
      vertex 2.19098 13.4511 20
    endloop
  endfacet
  facet normal 0.207909 -0.978148 0
    outer loop
      vertex 2.39547 13.4945 20
      vertex 2.19098 13.4511 3
      vertex 2.39547 13.4945 3
    endloop
  endfacet
  facet normal 0.951055 -0.30902 0
    outer loop
      vertex 1.52185 12.7079 20
      vertex 1.58645 12.9067 3
      vertex 1.58645 12.9067 20
    endloop
  endfacet
  facet normal 0.951055 -0.30902 0
    outer loop
      vertex 1.58645 12.9067 3
      vertex 1.52185 12.7079 20
      vertex 1.52185 12.7079 3
    endloop
  endfacet
  facet normal -0.20791 -0.978148 0
    outer loop
      vertex 36.6045 13.4945 3
      vertex 36.809 13.4511 20
      vertex 36.6045 13.4945 20
    endloop
  endfacet
  facet normal -0.20791 -0.978148 -0
    outer loop
      vertex 36.809 13.4511 20
      vertex 36.6045 13.4945 3
      vertex 36.809 13.4511 3
    endloop
  endfacet
  facet normal -0.587791 0.809013 0
    outer loop
      vertex 37.1691 1.75686 3
      vertex 37 1.63397 20
      vertex 37.1691 1.75686 20
    endloop
  endfacet
  facet normal -0.587791 0.809013 0
    outer loop
      vertex 37 1.63397 20
      vertex 37.1691 1.75686 3
      vertex 37 1.63397 3
    endloop
  endfacet
  facet normal -0.866029 0.499993 0
    outer loop
      vertex 37.309 1.91221 3
      vertex 37.4135 2.09326 20
      vertex 37.4135 2.09326 3
    endloop
  endfacet
  facet normal -0.866029 0.499993 0
    outer loop
      vertex 37.4135 2.09326 20
      vertex 37.309 1.91221 3
      vertex 37.309 1.91221 20
    endloop
  endfacet
  facet normal 0.587785 -0.809017 0
    outer loop
      vertex 1.83087 13.2431 3
      vertex 2 13.366 20
      vertex 1.83087 13.2431 20
    endloop
  endfacet
  facet normal 0.587785 -0.809017 0
    outer loop
      vertex 2 13.366 20
      vertex 1.83087 13.2431 3
      vertex 2 13.366 3
    endloop
  endfacet
  facet normal 0.866025 -0.5 0
    outer loop
      vertex 1.58645 12.9067 20
      vertex 1.69098 13.0878 3
      vertex 1.69098 13.0878 20
    endloop
  endfacet
  facet normal 0.866025 -0.5 0
    outer loop
      vertex 1.69098 13.0878 3
      vertex 1.58645 12.9067 20
      vertex 1.58645 12.9067 3
    endloop
  endfacet
  facet normal 0.994522 -0.104524 0
    outer loop
      vertex 1.5 12.5 20
      vertex 1.52185 12.7079 3
      vertex 1.52185 12.7079 20
    endloop
  endfacet
  facet normal 0.994522 -0.104524 0
    outer loop
      vertex 1.52185 12.7079 3
      vertex 1.5 12.5 20
      vertex 1.5 12.5 3
    endloop
  endfacet
  facet normal -0.743139 -0.669138 0
    outer loop
      vertex 37.309 13.0878 3
      vertex 37.1691 13.2431 20
      vertex 37.1691 13.2431 3
    endloop
  endfacet
  facet normal -0.743139 -0.669138 0
    outer loop
      vertex 37.1691 13.2431 20
      vertex 37.309 13.0878 3
      vertex 37.309 13.0878 20
    endloop
  endfacet
  facet normal -0.406739 -0.913545 0
    outer loop
      vertex 36.809 13.4511 3
      vertex 37 13.366 20
      vertex 36.809 13.4511 20
    endloop
  endfacet
  facet normal -0.406739 -0.913545 -0
    outer loop
      vertex 37 13.366 20
      vertex 36.809 13.4511 3
      vertex 37 13.366 3
    endloop
  endfacet
  facet normal 0.406739 -0.913545 0
    outer loop
      vertex 2 13.366 3
      vertex 2.19098 13.4511 20
      vertex 2 13.366 20
    endloop
  endfacet
  facet normal 0.406739 -0.913545 0
    outer loop
      vertex 2.19098 13.4511 20
      vertex 2 13.366 3
      vertex 2.19098 13.4511 3
    endloop
  endfacet
  facet normal -0.866029 -0.499993 0
    outer loop
      vertex 37.4135 12.9067 3
      vertex 37.309 13.0878 20
      vertex 37.309 13.0878 3
    endloop
  endfacet
  facet normal -0.866029 -0.499993 0
    outer loop
      vertex 37.309 13.0878 20
      vertex 37.4135 12.9067 3
      vertex 37.4135 12.9067 20
    endloop
  endfacet
  facet normal -0.951051 -0.309033 0
    outer loop
      vertex 37.4781 12.7079 3
      vertex 37.4135 12.9067 20
      vertex 37.4135 12.9067 3
    endloop
  endfacet
  facet normal -0.951051 -0.309033 0
    outer loop
      vertex 37.4135 12.9067 20
      vertex 37.4781 12.7079 3
      vertex 37.4781 12.7079 20
    endloop
  endfacet
  facet normal -0.587791 -0.809013 0
    outer loop
      vertex 37 13.366 3
      vertex 37.1691 13.2431 20
      vertex 37 13.366 20
    endloop
  endfacet
  facet normal -0.587791 -0.809013 -0
    outer loop
      vertex 37.1691 13.2431 20
      vertex 37 13.366 3
      vertex 37.1691 13.2431 3
    endloop
  endfacet
  facet normal 1 -0 0
    outer loop
      vertex 11 0.0109558 20
      vertex 11 1.50548 7
      vertex 11 1.50548 20
    endloop
  endfacet
  facet normal 1 0 0
    outer loop
      vertex 11 1.50548 7
      vertex 11 0.0109558 20
      vertex 11 0.0109558 7
    endloop
  endfacet
  facet normal -0.20791 0 0.978148
    outer loop
      vertex 27.2091 1.50548 5.01096
      vertex 27.618 0.0109558 5.09789
      vertex 27.618 1.50548 5.09789
    endloop
  endfacet
  facet normal -0.20791 0 0.978148
    outer loop
      vertex 27.618 0.0109558 5.09789
      vertex 27.2091 1.50548 5.01096
      vertex 27.2091 0.0109558 5.01096
    endloop
  endfacet
  facet normal -0 0 1
    outer loop
      vertex 12.7909 1.50548 5.01096
      vertex 27.2091 0.0109558 5.01096
      vertex 27.2091 1.50548 5.01096
    endloop
  endfacet
  facet normal 0 0 1
    outer loop
      vertex 27.2091 0.0109558 5.01096
      vertex 12.7909 1.50548 5.01096
      vertex 12.7909 0.0109558 5.01096
    endloop
  endfacet
  facet normal -1 0 0
    outer loop
      vertex 29 0.0109558 7
      vertex 29 1.50548 20
      vertex 29 1.50548 7
    endloop
  endfacet
  facet normal -1 -0 0
    outer loop
      vertex 29 1.50548 20
      vertex 29 0.0109558 7
      vertex 29 0.0109558 20
    endloop
  endfacet
  facet normal -0.994522 0 0.104529
    outer loop
      vertex 28.9563 0.0109558 6.58418
      vertex 29 1.50548 7
      vertex 28.9563 1.50548 6.58418
    endloop
  endfacet
  facet normal -0.994522 0 0.104529
    outer loop
      vertex 29 1.50548 7
      vertex 28.9563 0.0109558 6.58418
      vertex 29 0.0109558 7
    endloop
  endfacet
  facet normal -0.743143 0 0.669133
    outer loop
      vertex 28.3383 0.0109558 5.51371
      vertex 28.618 1.50548 5.82443
      vertex 28.3383 1.50548 5.51371
    endloop
  endfacet
  facet normal -0.743143 0 0.669133
    outer loop
      vertex 28.618 1.50548 5.82443
      vertex 28.3383 0.0109558 5.51371
      vertex 28.618 0.0109558 5.82443
    endloop
  endfacet
  facet normal 0.994522 -0 0.104527
    outer loop
      vertex 11 0.0109558 7
      vertex 11.0437 1.50548 6.58418
      vertex 11 1.50548 7
    endloop
  endfacet
  facet normal 0.994522 0 0.104527
    outer loop
      vertex 11.0437 1.50548 6.58418
      vertex 11 0.0109558 7
      vertex 11.0437 0.0109558 6.58418
    endloop
  endfacet
  facet normal -0.406739 0 0.913545
    outer loop
      vertex 27.618 1.50548 5.09789
      vertex 28 0.0109558 5.26795
      vertex 28 1.50548 5.26795
    endloop
  endfacet
  facet normal -0.406739 0 0.913545
    outer loop
      vertex 28 0.0109558 5.26795
      vertex 27.618 1.50548 5.09789
      vertex 27.618 0.0109558 5.09789
    endloop
  endfacet
  facet normal -0.587786 0 0.809017
    outer loop
      vertex 28 1.50548 5.26795
      vertex 28.3383 0.0109558 5.51371
      vertex 28.3383 1.50548 5.51371
    endloop
  endfacet
  facet normal -0.587786 0 0.809017
    outer loop
      vertex 28.3383 0.0109558 5.51371
      vertex 28 1.50548 5.26795
      vertex 28 0.0109558 5.26795
    endloop
  endfacet
  facet normal -0.951057 0 0.309016
    outer loop
      vertex 28.8271 0.0109558 6.18653
      vertex 28.9563 1.50548 6.58418
      vertex 28.8271 1.50548 6.18653
    endloop
  endfacet
  facet normal -0.951057 0 0.309016
    outer loop
      vertex 28.9563 1.50548 6.58418
      vertex 28.8271 0.0109558 6.18653
      vertex 28.9563 0.0109558 6.58418
    endloop
  endfacet
  facet normal -0.866026 0 0.499999
    outer loop
      vertex 28.618 0.0109558 5.82443
      vertex 28.8271 1.50548 6.18653
      vertex 28.618 1.50548 5.82443
    endloop
  endfacet
  facet normal -0.866026 0 0.499999
    outer loop
      vertex 28.8271 1.50548 6.18653
      vertex 28.618 0.0109558 5.82443
      vertex 28.8271 0.0109558 6.18653
    endloop
  endfacet
  facet normal 0.743144 -0 0.669131
    outer loop
      vertex 11.382 0.0109558 5.82443
      vertex 11.6617 1.50548 5.51371
      vertex 11.382 1.50548 5.82443
    endloop
  endfacet
  facet normal 0.743144 0 0.669131
    outer loop
      vertex 11.6617 1.50548 5.51371
      vertex 11.382 0.0109558 5.82443
      vertex 11.6617 0.0109558 5.51371
    endloop
  endfacet
  facet normal 0.587784 0 0.809018
    outer loop
      vertex 11.6617 1.50548 5.51371
      vertex 12 0.0109558 5.26795
      vertex 12 1.50548 5.26795
    endloop
  endfacet
  facet normal 0.587784 0 0.809018
    outer loop
      vertex 12 0.0109558 5.26795
      vertex 11.6617 1.50548 5.51371
      vertex 11.6617 0.0109558 5.51371
    endloop
  endfacet
  facet normal 0.406739 0 0.913545
    outer loop
      vertex 12 1.50548 5.26795
      vertex 12.382 0.0109558 5.09789
      vertex 12.382 1.50548 5.09789
    endloop
  endfacet
  facet normal 0.406739 0 0.913545
    outer loop
      vertex 12.382 0.0109558 5.09789
      vertex 12 1.50548 5.26795
      vertex 12 0.0109558 5.26795
    endloop
  endfacet
  facet normal 0.207911 0 0.978148
    outer loop
      vertex 12.382 1.50548 5.09789
      vertex 12.7909 0.0109558 5.01096
      vertex 12.7909 1.50548 5.01096
    endloop
  endfacet
  facet normal 0.207911 0 0.978148
    outer loop
      vertex 12.7909 0.0109558 5.01096
      vertex 12.382 1.50548 5.09789
      vertex 12.382 0.0109558 5.09789
    endloop
  endfacet
  facet normal 0.951056 -0 0.309018
    outer loop
      vertex 11.0437 0.0109558 6.58418
      vertex 11.1729 1.50548 6.18653
      vertex 11.0437 1.50548 6.58418
    endloop
  endfacet
  facet normal 0.951056 0 0.309018
    outer loop
      vertex 11.1729 1.50548 6.18653
      vertex 11.0437 0.0109558 6.58418
      vertex 11.1729 0.0109558 6.18653
    endloop
  endfacet
  facet normal 0.866026 -0 0.499999
    outer loop
      vertex 11.1729 0.0109558 6.18653
      vertex 11.382 1.50548 5.82443
      vertex 11.1729 1.50548 6.18653
    endloop
  endfacet
  facet normal 0.866026 0 0.499999
    outer loop
      vertex 11.382 1.50548 5.82443
      vertex 11.1729 0.0109558 6.18653
      vertex 11.382 0.0109558 5.82443
    endloop
  endfacet
endsolid OpenSCAD_Model
